 <svg display="none" xmlns="http://www.w3.org/2000/svg">

  <symbol id="logo-header" viewBox="0 0 181 21">
    <g>
      <path d="M14.12 14.12H15.268C15.3427 14.4187 15.408 14.7827 15.464 15.212C15.5387 15.6227 15.5947 16.0707 15.632 16.556C15.688 17.0227 15.7253 17.4893 15.744 17.956C15.7627 18.4227 15.772 18.8427 15.772 19.216C15.1187 19.6267 14.2973 19.916 13.308 20.084C12.3373 20.252 11.3387 20.336 10.312 20.336C8.76267 20.336 7.35333 20.1493 6.084 19.776C4.83333 19.384 3.76 18.7773 2.864 17.956C1.98667 17.116 1.30533 16.0613 0.82 14.792C0.334667 13.504 0.092 11.964 0.092 10.172C0.092 8.39867 0.353333 6.87733 0.876 5.608C1.41733 4.32 2.136 3.26533 3.032 2.444C3.928 1.62267 4.964 1.02533 6.14 0.651999C7.33467 0.259999 8.58533 0.0639997 9.892 0.0639997C11.124 0.0639997 12.2347 0.157333 13.224 0.343999C14.232 0.511999 15.0533 0.745333 15.688 1.044C15.688 1.34267 15.6693 1.72533 15.632 2.192C15.6133 2.65867 15.5667 3.15333 15.492 3.676C15.436 4.18 15.3613 4.684 15.268 5.188C15.1933 5.67333 15.1187 6.084 15.044 6.42H13.868L12.328 2.192C12.16 2.09867 11.8893 2.024 11.516 1.968C11.1427 1.912 10.76 1.884 10.368 1.884C9.60267 1.884 8.884 2.04267 8.212 2.36C7.54 2.65867 6.94267 3.144 6.42 3.816C5.89733 4.488 5.48667 5.356 5.188 6.42C4.88933 7.46533 4.74 8.72533 4.74 10.2C4.74 12.8693 5.272 14.9227 6.336 16.36C7.4 17.7973 8.84667 18.516 10.676 18.516C11.1987 18.516 11.6373 18.4787 11.992 18.404C12.3653 18.3107 12.6173 18.1893 12.748 18.04L14.12 14.12ZM31.4056 20H21.7736V18.936C22.147 18.7867 22.567 18.6373 23.0336 18.488C23.519 18.32 24.0043 18.1987 24.4896 18.124V2.22H21.2416L19.4496 7.008H18.3016C18.227 6.63467 18.1523 6.15867 18.0776 5.58C18.003 5.00133 17.9376 4.404 17.8816 3.788C17.8256 3.172 17.779 2.56533 17.7416 1.968C17.7043 1.352 17.6856 0.829332 17.6856 0.399999H35.4936C35.4936 0.847998 35.475 1.37067 35.4376 1.968C35.4003 2.56533 35.3536 3.172 35.2976 3.788C35.2416 4.404 35.1763 5.00133 35.1016 5.58C35.027 6.14 34.9523 6.616 34.8776 7.008H33.7296L31.9376 2.22H28.6896V18.124C29.175 18.2173 29.651 18.3293 30.1176 18.46C30.603 18.5907 31.0323 18.7493 31.4056 18.936V20ZM51.0341 14.12H52.1821C52.2567 14.4187 52.3221 14.7827 52.3781 15.212C52.4527 15.6227 52.5087 16.0707 52.5461 16.556C52.6021 17.0227 52.6394 17.4893 52.6581 17.956C52.6767 18.4227 52.6861 18.8427 52.6861 19.216C52.0327 19.6267 51.2114 19.916 50.2221 20.084C49.2514 20.252 48.2527 20.336 47.2261 20.336C45.6767 20.336 44.2674 20.1493 42.9981 19.776C41.7474 19.384 40.6741 18.7773 39.7781 17.956C38.9007 17.116 38.2194 16.0613 37.7341 14.792C37.2487 13.504 37.0061 11.964 37.0061 10.172C37.0061 8.39867 37.2674 6.87733 37.7901 5.608C38.3314 4.32 39.0501 3.26533 39.9461 2.444C40.8421 1.62267 41.8781 1.02533 43.0541 0.651999C44.2487 0.259999 45.4994 0.0639997 46.8061 0.0639997C48.0381 0.0639997 49.1487 0.157333 50.1381 0.343999C51.1461 0.511999 51.9674 0.745333 52.6021 1.044C52.6021 1.34267 52.5834 1.72533 52.5461 2.192C52.5274 2.65867 52.4807 3.15333 52.4061 3.676C52.3501 4.18 52.2754 4.684 52.1821 5.188C52.1074 5.67333 52.0327 6.084 51.9581 6.42H50.7821L49.2421 2.192C49.0741 2.09867 48.8034 2.024 48.4301 1.968C48.0567 1.912 47.6741 1.884 47.2821 1.884C46.5167 1.884 45.7981 2.04267 45.1261 2.36C44.4541 2.65867 43.8567 3.144 43.3341 3.816C42.8114 4.488 42.4007 5.356 42.1021 6.42C41.8034 7.46533 41.6541 8.72533 41.6541 10.2C41.6541 12.8693 42.1861 14.9227 43.2501 16.36C44.3141 17.7973 45.7607 18.516 47.5901 18.516C48.1127 18.516 48.5514 18.4787 48.9061 18.404C49.2794 18.3107 49.5314 18.1893 49.6621 18.04L51.0341 14.12ZM56.0277 10.844H63.9237V13.364H56.0277V10.844ZM78.8836 2.276C78.4356 2.18267 78.0436 2.07067 77.7076 1.94C77.3716 1.79067 77.0449 1.632 76.7276 1.464V0.399999H83.5036V1.464C83.2982 1.61333 83.0182 1.76267 82.6636 1.912C82.3276 2.04267 81.9449 2.164 81.5156 2.276L76.1676 14.372C75.2716 16.4253 74.3382 17.956 73.3676 18.964C72.3969 19.9533 71.3609 20.3453 70.2596 20.14C70.1102 19.9907 69.9516 19.7667 69.7836 19.468C69.6342 19.1507 69.4849 18.824 69.3356 18.488C69.2049 18.1333 69.0929 17.7973 68.9996 17.48C68.9062 17.144 68.8502 16.864 68.8316 16.64L69.6156 15.52L72.9476 16.556C73.0969 16.388 73.2369 16.1827 73.3676 15.94C73.4982 15.6973 73.6196 15.4267 73.7316 15.128L66.2836 2.276C65.9289 2.18267 65.5836 2.07067 65.2476 1.94C64.9302 1.79067 64.6316 1.632 64.3516 1.464V0.399999H73.0876V1.464C72.5276 1.8 71.8182 2.07067 70.9596 2.276L74.9076 9.864L75.4956 11.656H75.5516L76.1116 9.808L78.8836 2.276ZM86.3482 2.276C85.4709 2.12667 84.7055 1.856 84.0522 1.464V0.399999H99.0882C99.0882 0.829332 99.0695 1.30533 99.0322 1.828C98.9949 2.35067 98.9482 2.87333 98.8922 3.396C98.8362 3.91867 98.7709 4.42267 98.6962 4.908C98.6215 5.39333 98.5469 5.832 98.4722 6.224H97.3242L95.5882 2.22H90.5482V8.604C90.7162 8.58533 90.9215 8.56667 91.1642 8.548C91.4069 8.51067 91.6495 8.48267 91.8922 8.464C92.1535 8.44533 92.4055 8.436 92.6482 8.436C92.9095 8.41733 93.1335 8.408 93.3202 8.408C94.2722 8.408 95.1775 8.51067 96.0362 8.716C96.8949 8.92133 97.6415 9.25733 98.2762 9.724C98.9295 10.172 99.4429 10.76 99.8162 11.488C100.208 12.216 100.404 13.0933 100.404 14.12C100.404 15.1093 100.199 15.9773 99.7882 16.724C99.3962 17.4707 98.8455 18.096 98.1362 18.6C97.4455 19.0853 96.6149 19.4587 95.6442 19.72C94.6922 19.9627 93.6562 20.084 92.5362 20.084C92.4429 20.084 92.2095 20.0747 91.8362 20.056C91.4629 20.056 91.0429 20.0467 90.5762 20.028C90.1095 20.028 89.6429 20.0187 89.1762 20C88.7095 20 88.3362 20 88.0562 20H84.0522V18.936C84.4069 18.7307 84.7709 18.5627 85.1442 18.432C85.5362 18.2827 85.9375 18.18 86.3482 18.124V2.276ZM92.1162 10.228C91.8175 10.228 91.5282 10.2467 91.2482 10.284C90.9682 10.3027 90.7349 10.34 90.5482 10.396V18.152C90.6229 18.1707 90.7349 18.1893 90.8842 18.208C91.0522 18.2267 91.2202 18.2453 91.3882 18.264C91.5562 18.264 91.7149 18.264 91.8642 18.264C92.0322 18.264 92.1629 18.264 92.2562 18.264C93.3575 18.264 94.2162 17.9093 94.8322 17.2C95.4669 16.4907 95.7842 15.492 95.7842 14.204C95.7842 12.972 95.4949 12.0013 94.9162 11.292C94.3375 10.5827 93.4042 10.228 92.1162 10.228ZM102.522 10.2C102.522 8.744 102.727 7.4 103.138 6.168C103.548 4.91733 104.155 3.844 104.958 2.948C105.76 2.03333 106.75 1.324 107.926 0.819998C109.102 0.315999 110.455 0.0639997 111.986 0.0639997C113.516 0.0639997 114.87 0.315999 116.046 0.819998C117.222 1.324 118.202 2.03333 118.986 2.948C119.788 3.844 120.395 4.91733 120.806 6.168C121.216 7.4 121.422 8.744 121.422 10.2C121.422 11.656 121.216 13.0093 120.806 14.26C120.395 15.492 119.788 16.5653 118.986 17.48C118.202 18.376 117.222 19.076 116.046 19.58C114.87 20.084 113.516 20.336 111.986 20.336C110.455 20.336 109.102 20.084 107.926 19.58C106.75 19.076 105.76 18.376 104.958 17.48C104.155 16.5653 103.548 15.492 103.138 14.26C102.727 13.0093 102.522 11.656 102.522 10.2ZM107.282 10.2C107.282 11.3947 107.375 12.5053 107.562 13.532C107.748 14.54 108.038 15.4173 108.43 16.164C108.84 16.892 109.354 17.4707 109.97 17.9C110.604 18.3107 111.36 18.516 112.238 18.516C113.04 18.516 113.722 18.3107 114.282 17.9C114.842 17.4707 115.299 16.892 115.654 16.164C116.008 15.4173 116.26 14.54 116.41 13.532C116.578 12.5053 116.662 11.3947 116.662 10.2C116.662 9.00533 116.568 7.904 116.382 6.896C116.214 5.86933 115.934 4.992 115.542 4.264C115.168 3.51733 114.664 2.93867 114.03 2.528C113.414 2.09867 112.658 1.884 111.762 1.884C110.903 1.884 110.184 2.09867 109.606 2.528C109.027 2.93867 108.56 3.51733 108.206 4.264C107.87 4.992 107.627 5.86933 107.478 6.896C107.347 7.904 107.282 9.00533 107.282 10.2ZM129.595 18.124C130.099 18.1987 130.594 18.3107 131.079 18.46C131.583 18.5907 132.031 18.7493 132.423 18.936V20H123.099V18.936C123.454 18.7307 123.827 18.5627 124.219 18.432C124.63 18.3013 125.022 18.1987 125.395 18.124V2.276C124.966 2.20133 124.555 2.09867 124.163 1.968C123.771 1.81867 123.416 1.65067 123.099 1.464V0.399999H126.627C127.374 0.399999 128.223 0.362665 129.175 0.287998C130.146 0.213333 131.032 0.176 131.835 0.176C132.824 0.176 133.786 0.278666 134.719 0.483999C135.671 0.670666 136.511 0.997332 137.239 1.464C137.986 1.93067 138.583 2.556 139.031 3.34C139.479 4.10533 139.703 5.06667 139.703 6.224C139.703 7.32533 139.479 8.27733 139.031 9.08C138.602 9.88267 138.023 10.5453 137.295 11.068C136.567 11.5907 135.727 11.9827 134.775 12.244C133.823 12.4867 132.843 12.608 131.835 12.608C131.742 12.608 131.592 12.608 131.387 12.608C131.182 12.608 130.958 12.608 130.715 12.608C130.491 12.5893 130.267 12.58 130.043 12.58C129.838 12.5613 129.688 12.5427 129.595 12.524V18.124ZM131.107 1.996C130.734 1.996 130.435 2.01467 130.211 2.052C130.006 2.07067 129.8 2.108 129.595 2.164V10.676C129.763 10.732 130.015 10.7693 130.351 10.788C130.687 10.788 130.958 10.788 131.163 10.788C131.667 10.788 132.152 10.704 132.619 10.536C133.086 10.368 133.496 10.1067 133.851 9.752C134.224 9.39733 134.523 8.94 134.747 8.38C134.971 7.82 135.083 7.148 135.083 6.364C135.083 4.87067 134.719 3.76933 133.991 3.06C133.263 2.35067 132.302 1.996 131.107 1.996ZM151.621 0.399999H159.125V1.464C158.808 1.66933 158.444 1.84667 158.033 1.996C157.623 2.12667 157.249 2.22 156.913 2.276L151.593 9.024C152.023 9.62133 152.527 10.3027 153.105 11.068C153.684 11.8147 154.3 12.5987 154.953 13.42C155.607 14.2227 156.279 15.044 156.969 15.884C157.66 16.7053 158.332 17.4893 158.985 18.236L160.329 19.048V20H155.457L154.337 19.216C153.889 18.656 153.413 18.04 152.909 17.368C152.424 16.6773 151.939 15.968 151.453 15.24C150.968 14.4933 150.492 13.7467 150.025 13C149.559 12.2533 149.12 11.5253 148.709 10.816H147.505V18.124C147.916 18.1987 148.289 18.3107 148.625 18.46C148.961 18.6093 149.251 18.768 149.493 18.936V20H141.009V18.936C141.383 18.7493 141.765 18.5907 142.157 18.46C142.549 18.3107 142.932 18.1987 143.305 18.124V2.276C142.876 2.22 142.456 2.11733 142.045 1.968C141.653 1.81867 141.308 1.65067 141.009 1.464V0.399999H149.493V1.464C149.251 1.61333 148.952 1.76267 148.597 1.912C148.261 2.06133 147.897 2.18267 147.505 2.276V9.388L149.157 8.996L153.665 2.276C153.292 2.20133 152.919 2.08933 152.545 1.94C152.191 1.772 151.883 1.61333 151.621 1.464V0.399999ZM167.244 20H160.328V18.936C160.627 18.7493 160.944 18.5907 
      161.28 18.46C161.635 18.3107 161.98 18.1987 162.316 18.124L169.54 0.0639997H171.612L178.64 18.124C179.013 18.1987 179.387 18.3107 179.76 18.46C180.133 18.5907 180.46 18.7493 180.74 18.936V20H171.976V18.936C172.331 18.768 172.713 18.6093 173.124 18.46C173.535 18.3107 173.927 18.1987 174.3 18.124L172.676 13.672H166.46L164.808 18.124C165.667 18.236 166.479 18.5067 167.244 18.936V20ZM167.132 11.852H172.088L170.268 6.504L169.736 4.096H169.68L169.064 6.56L167.132 11.852Z"/>
    </g>
  </symbol>

  <symbol id="services-svg" viewBox="0 0 40 40">
    <g>
      <path d="M0 20C0 31.028 8.972 40 20 40C31.028 40 40 31.028 40 20C40 8.972 31.028 0 20 0C15.784 0 11.7904 1.2968 8.3904 3.7312L5.956 1.2968C5.5344 0.878401 4.94 0.709602 4.3624 0.846401C3.7872 0.980801 3.3312 1.3992 3.144 1.9624L0.937603 8.584C0.621603 9.5216 0.862404 10.5368 1.5624 11.2368C2.056 11.7336 2.7152 11.996 3.3904 11.996C3.6656 11.996 3.9432 11.952 4.2152 11.8616L10.8368 9.6552C11.3992 9.468 11.8184 9.0112 11.9528 8.4368C12.0904 7.8584 11.9216 7.2616 11.5024 6.8432L9.5368 4.8776C12.6184 2.7408 16.2128 1.6 20 1.6C30.1472 1.6 38.4 9.8528 38.4 20C38.4 30.1472 30.1472 38.4 20 38.4C9.8528 38.4 1.6 30.1472 1.6 20L0 20ZM10.372 7.9752C10.3816 7.9848 10.4096 8.016 10.3968 8.0688C10.384 8.1216 10.3464 8.1344 10.3312 8.1376L3.7096 10.3472C3.3472 10.4656 2.9656 10.3784 2.6936 10.1064C2.4216 9.8344 2.3312 9.4536 2.4528 9.0904L4.66239 2.4688C4.66559 2.4528 4.67839 2.41599 4.7312 2.40319C4.7408 2.39999 4.7504 2.39999 4.75919 2.39999C4.79679 2.39999 4.81519 2.42159 4.82479 2.42799L10.372 7.9752Z" fill="#2C47F0"/>
<path d="M20 35.2V36.8C29.2624 36.8 36.8 29.2624 36.8 20H35.2C35.2 28.3816 28.3816 35.2 20 35.2Z" fill="#F25929"/>
<path d="M16.5336 13.5999H11.8672C11.4984 13.5999 11.2 13.8895 11.2 14.2471V15.3287C11.2 15.6863 11.4984 15.9759 11.8664 15.9759L16.8 15.9999V19.0431L13.228 19.8119C12.036 20.0959 11.2 21.1175 11.2 22.2895V23.8463C11.2 25.2567 12.3984 26.3999 13.8768 26.3999H18.536C18.9024 26.3999 19.2 26.1103 19.2 25.7535V24.6471C19.2 24.2895 18.9024 23.9999 18.536 23.9999H13.6V22.2359L17.1888 21.4319C18.3704 21.1447 19.2 20.1095 19.2 18.9223V16.1871C19.2 14.7583 18.0064 13.5999 16.5336 13.5999H16.5336Z" fill="#F25929"/>
<path d="M28.1601 13.5999H27.0401C26.6865 13.5999 26.4001 13.8863 26.4001 14.2399V19.6407L24.0001 19.0007V14.2399C24.0001 13.8863 23.7137 13.5999 23.3601 13.5999H22.2401C21.8865 13.5999 21.6001 13.8863 21.6001 14.2399V19.0327C21.6001 20.1927 22.3801 21.2071 23.5001 21.5063L26.4001 22.2791V25.7599C26.4001 26.1135 26.6865 26.3999 27.0401 26.3999H28.1601C28.5137 26.3999 28.8001 26.1135 28.8001 25.7599V14.2399C28.8001 13.8863 28.5137 13.5999 28.1601 13.5999Z" fill="#F25929"/>

    </g>
  </symbol>

  <symbol id="step-order" viewBox="0 0 76 76">
    <g>
      <path d="M38 0C17.0132 0 0 17.0132 0 38C0 58.9868 17.0132 76 38 76C58.9868 76 76 58.9868 76 38C76 17.0132 58.9868 0 38 0Z" fill="#353E60"/>
<path d="M32.143 29.7015L26.7045 24.2599C26.1037 23.6587 26.1037 22.6841 26.7045 22.0829C27.3053 21.4818 28.2794 21.4818 28.8802 22.0829L34.3186 27.5246C34.9194 28.1257 34.9194 29.1004 34.3186 29.7015C33.7172 30.3026 32.7438 30.3026 32.143 29.7015Z" fill="#F25929"/>
<path d="M51.7212 49.2913L46.2827 43.8497C45.682 43.2486 45.682 42.2739 46.2827 41.6728C46.8835 41.0716 47.8576 41.0716 48.4584 41.6728L53.8969 47.1144C54.4977 47.7156 54.4977 48.6902 53.8969 49.2913C53.2961 49.8925 52.322 49.8925 51.7212 49.2913Z" fill="#F25929"/>
<path d="M54.3591 46.6521L48.9206 41.2111C48.0923 40.3817 46.6482 40.3817 45.8206 41.2111L42.2505 44.7833C41.9798 45.0541 41.566 45.1254 41.2417 44.9592C36.776 42.6508 33.3419 39.2147 31.0349 34.7464C30.8682 34.4226 30.9394 34.0079 31.2101 33.7377L34.7808 30.1649C35.6359 29.3093 35.6359 27.918 34.7808 27.0631L29.3423 21.6221C28.514 20.7926 27.0699 20.7926 26.2423 21.6221L23.0115 24.8541C20.7829 27.084 20.3579 30.5011 21.9786 33.1628C27.217 41.7632 34.2304 48.7813 42.8245 54.0201C43.9044 54.6795 45.1086 55 46.3076 55C48.0616 55 49.8045 54.3119 51.1283 52.9873L54.3578 49.7565C54.3578 49.7565 54.3591 49.7559 54.3597 49.7552C55.2135 48.899 55.2135 47.5077 54.3591 46.6521L54.3591 46.6521ZM47.9956 42.136L53.434 47.577C53.7792 47.9217 53.7792 48.4843 53.434 48.829C53.0895 49.1731 52.528 49.1731 52.1828 48.829L46.7443 43.3874C46.3998 43.0426 46.3998 42.4807 46.7443 42.136C47.079 41.8011 47.6621 41.8011 47.9956 42.136H47.9956ZM28.4173 22.5463L33.8558 27.9873C34.2009 28.3321 34.2009 28.8946 33.8558 29.2393C33.5112 29.5827 32.9497 29.5841 32.6045 29.2393L27.166 23.7977C26.8215 23.453 26.8215 22.8911 27.166 22.5463C27.5001 22.2114 28.0832 22.2114 28.4173 22.5463L28.4173 22.5463ZM50.2032 52.0617C48.4028 53.8651 45.648 54.2092 43.5043 52.9029C35.09 47.7726 28.2231 40.9017 23.0945 32.4812C21.7883 30.337 22.1342 27.5805 23.9352 25.7784L25.7507 23.9625C25.8572 24.2392 26.0187 24.4996 26.2416 24.7226L31.6801 30.1643C31.903 30.3873 32.1632 30.5489 32.4398 30.6555L30.2857 32.8115C29.6064 33.4905 29.441 34.5089 29.8732 35.3462C32.307 40.0605 35.9301 43.6856 40.6423 46.1216C40.9528 46.2818 41.2875 46.3597 41.6216 46.3597C42.1871 46.3597 42.748 46.1353 43.1749 45.7088L45.3302 43.5522C45.4368 43.8289 45.5983 44.0892 45.8212 44.3123L51.2597 49.7539C51.4826 49.977 51.7428 50.1386 52.0193 50.2452L50.2032 52.0617Z" fill="white"/>


    </g>
  </symbol>

   <symbol id="step-cleanup" viewBox="0 0 76 76">
    <g>
      <path d="M38 0C17.0132 0 0 17.0132 0 38C0 58.9868 17.0132 76 38 76C58.9868 76 76 58.9868 76 38C76 17.0132 58.9868 0 38 0Z" fill="#353E60"/>
<path d="M24 40.5V40C24 38.8954 24.8954 38 26 38H41.5C42.6046 38 43.5 38.8954 43.5 40V40.5C43.5 41.6046 42.6046 42.5 41.5 42.5H26C24.8954 42.5 24 41.6046 24 40.5Z" fill="#F25929"/>
<path d="M28.75 54.5H25.75C24.7835 54.5 24 53.7165 24 52.75C24 51.7835 24.7835 51 25.75 51H28.75C29.7165 51 30.5 51.7835 30.5 52.75C30.5 53.7165 29.7165 54.5 28.75 54.5Z" fill="#F25929"/>
<path d="M34.75 54.5H32.75C31.7835 54.5 31 53.7165 31 52.75C31 51.7835 31.7835 51 32.75 51H34.75C35.7165 51 36.5 51.7835 36.5 52.75C36.5 53.7165 35.7165 54.5 34.75 54.5Z" fill="#F25929"/>
<path d="M41.75 54.5H39.75C38.7835 54.5 38 53.7165 38 52.75C38 51.7835 38.7835 51 39.75 51H41.75C42.7165 51 43.5 51.7835 43.5 52.75C43.5 53.7165 42.7165 54.5 41.75 54.5Z" fill="#F25929"/>
<path d="M41.36 37.32H39.32C38.57 37.32 37.96 36.71 37.96 35.96V24.4C37.96 22.5252 36.4348 21 34.56 21H33.2C31.3252 21 29.8 22.5252 29.8 24.4V35.96C29.8 36.71 29.19 37.32 28.44 37.32H26.4C24.5252 37.32 23 38.8452 23 40.72V41.4V42.76V50.92C23 53.1701 24.8299 55 27.08 55C28.4978 55 29.7483 54.2738 30.48 53.1728C31.2117 54.2738 32.4622 55 33.88 55C35.2978 55 36.5483 54.2738 37.28 53.1728C38.0117 54.2738 39.2622 55 40.68 55C42.9301 55 44.76 53.1701 44.76 50.92V42.76V41.4V40.72C44.76 38.8452 43.2348 37.32 41.36 37.32ZM33.2 22.36H34.56C35.6847 22.36 36.6 23.2753 36.6 24.4V34.6H31.16V24.4C31.16 23.2753 32.0753 22.36 33.2 22.36ZM31.16 35.96H36.6C36.6 36.4578 36.7442 36.9181 36.9781 37.32H30.7819C31.0158 36.9181 31.16 36.4578 31.16 35.96ZM43.4 50.92C43.4 52.4201 42.1801 53.64 40.68 53.64C39.1799 53.64 37.96 52.4201 37.96 50.92V49.56H36.6V50.92C36.6 52.4201 35.3801 53.64 33.88 53.64C32.3799 53.64 31.16 52.4201 31.16 50.92V49.56H29.8V50.92C29.8 52.4201 28.5801 53.64 27.08 53.64C25.5799 53.64 24.36 52.4201 24.36 50.92V42.76H26.4V45.48H27.76V42.76H29.8V44.12H31.16V42.76H33.2V45.48H34.56V42.76H36.6V44.12H37.96V42.76H40V45.48H41.36V42.76H43.4V50.92ZM24.36 41.4V40.72C24.36 39.5953 25.2753 38.68 26.4 38.68H41.36C42.4847 38.68 43.4 39.5953 43.4 40.72V41.4H24.36Z" fill="white"/>
<path d="M47.48 38.6799H50.2V40.0399H47.48V38.6799Z" fill="white"/>
<path d="M47.48 41.3999H52.92V42.7599H47.48V41.3999Z" fill="white"/>
<path d="M48.84 44.1201H55.64V45.4801H48.84V44.1201Z" fill="white"/>
<path d="M50.2 46.8401H58.36V48.2001H50.2V46.8401Z" fill="white"/>
<path d="M52.629 30.1494L52.9112 31.3782C53.0472 31.9698 53.5096 32.4322 54.1012 32.5682L55.33 32.8504C55.7427 32.9449 55.7427 33.5331 55.33 33.6276L54.1012 33.9098C53.5096 34.0458 53.0472 34.5082 52.9112 35.0998L52.629 36.3286C52.5345 36.7413 51.9463 36.7413 51.8518 36.3286L51.5696 35.0998C51.4336 34.5082 50.9712 34.0458 50.3796 33.9098L49.1508 33.6276C48.7381 33.5331 48.7381 32.9449 49.1508 32.8504L50.3796 32.5682C50.9712 32.4322 51.4336 31.9698 51.5696 31.3782L51.8518 30.1494C51.9463 29.7367 52.5338 29.7367 52.629 30.1494L52.629 30.1494Z" fill="#F25929"/>
<path d="M45.149 24.7095L45.4312 25.9382C45.5672 26.5298 46.0296 26.9922 46.6212 27.1282L47.8499 27.4104C48.2627 27.5049 48.2627 28.0931 47.8499 28.1877L46.6212 28.4699C46.0296 28.6059 45.5672 29.0683 45.4312 29.6599L45.149 30.8886C45.0545 31.3014 44.4663 31.3014 44.3717 30.8886L44.0895 29.6599C43.9535 29.0683 43.4911 28.6059 42.8995 28.4699L41.6708 28.1877C41.258 28.0931 41.258 27.5049 41.6708 27.4104L42.8995 27.1282C43.4911 26.9922 43.9535 26.5298 44.0895 25.9382L44.3717 24.7095C44.4663 24.2967 45.0538 24.2967 45.149 24.7095L45.149 24.7095Z" fill="#F25929"/>

    </g>
  </symbol>

   <symbol id="step-result" viewBox="0 0 76 76">
    <g>
      <path d="M38 0C17.0132 0 0 17.0132 0 38C0 58.9868 17.0132 76 38 76C58.9868 76 76 58.9868 76 38C76 17.0132 58.9868 0 38 0Z" fill="#353E60"/>
<path d="M54.1539 35.4528C54.1539 34.3611 53.4231 33.3058 52.1603 32.5268C52.8757 31.4066 53.0694 30.2812 52.685 29.3538C52.2663 28.3447 51.1862 27.649 49.7217 27.4129C49.9534 26.1056 49.7013 24.9919 48.9902 24.2816C48.3143 23.6071 47.251 23.344 46.008 23.5289C45.682 22.4086 45.0507 21.596 44.2183 21.2518C43.25 20.8477 42.0377 21.0888 40.8685 21.8832C40.3043 21.1078 39.2725 20 37.9885 20C36.8339 20 35.7823 21.0801 35.1721 21.862C34.2323 21.1765 32.8958 20.8112 31.8362 21.2511C30.8905 21.642 30.2562 22.6169 30.0078 24.0346C28.6383 23.7554 27.4435 24.0002 26.7091 24.7332C26.0638 25.3777 25.7963 26.3504 25.9308 27.5196C24.7133 27.8265 23.8335 28.4747 23.4688 29.3546C23.0845 30.2827 23.2774 31.4073 23.9943 32.5276C22.7308 33.3051 22 34.3596 22 35.4528C22 36.4562 22.6095 37.4215 23.7005 38.1823C22.8323 39.3844 22.5612 40.6384 22.9792 41.6483C23.3643 42.5757 24.2975 43.2341 25.5961 43.5205C25.2541 44.9638 25.4836 46.2258 26.2567 46.9975C27.0394 47.7795 27.8462 47.9183 29.3077 47.7385V55.0565C29.3077 56.6788 30.6282 58 32.252 58C32.8695 58 33.4621 57.81 33.9634 57.4512L37.2161 55.1288C37.7313 54.7605 38.4233 54.7605 38.9385 55.1288L42.1904 57.4512C42.6925 57.81 43.2844 58 43.9019 58C45.5257 58 46.8462 56.6788 46.8462 55.0557V48.2406C47.5769 48.321 48.8397 48.0535 49.444 47.4499C50.4123 46.4831 50.3926 44.9419 50.0082 43.6192C51.3418 43.4431 52.6718 42.8636 53.1746 41.6483C53.5926 40.6391 53.3222 39.3851 52.4541 38.183C53.5444 37.4215 54.1538 36.4569 54.1538 35.4528H54.1539ZM43.9019 56.5385C43.5906 56.5385 43.2932 56.4427 43.0403 56.2622L39.7891 53.9398C38.7653 53.2083 37.3907 53.2069 36.3662 53.9398L33.1143 56.2622C32.8607 56.4427 32.5633 56.5385 32.2527 56.5385C31.435 56.5385 30.7692 55.8735 30.7692 55.0557V49.9944C30.7692 50.4022 31.4445 50.7325 31.9246 50.9313C32.8855 51.3273 34.0847 51.095 35.2467 50.3101C36.0184 51.4786 37.0378 52.1538 38.0769 52.1538C39.1168 52.1538 40.1355 51.4786 40.9079 50.3108C42.0691 51.095 43.2683 51.3281 44.2293 50.932C44.6816 50.7449 45.3846 50.4161 45.3846 49.982V55.0565C45.3846 55.8735 44.7196 56.5385 43.9019 56.5385L43.9019 56.5385ZM50.8179 38.4928C51.6817 39.4158 52.0858 40.4586 51.8249 41.0885C51.5413 41.774 50.3772 42.2439 48.9924 42.2176L47.8312 42.2L48.3172 43.2545C48.828 44.3631 49.0246 45.8042 48.4122 46.4158C47.9474 46.8806 46.9068 46.9267 45.758 46.5269L44.8468 46.2112L44.7898 47.1737C44.7174 48.3845 44.279 49.3287 43.671 49.5808C43.0615 49.8337 42.083 49.4741 41.1761 48.6688L40.4549 48.0287L40.0339 48.8968C39.5034 49.9871 38.7354 50.6923 38.0769 50.6923C37.4192 50.6923 36.6512 49.9871 36.1214 48.8968L35.7005 48.0287L34.9792 48.6688C34.073 49.4748 33.0945 49.8329 32.4844 49.5808C31.6834 49.249 31.3122 47.8416 31.3604 46.6227L31.4065 45.4622L30.341 45.9233C29.0709 46.4736 27.8169 46.4875 27.2908 45.9635C26.8012 45.4739 26.7763 44.3814 27.2272 43.18L27.5663 42.276L26.6039 42.1957C25.4449 42.0985 24.5738 41.6739 24.3304 41.0878C24.0703 40.4586 24.4744 39.4151 25.3382 38.4921L25.998 37.7855L25.1387 37.3433C24.1039 36.8106 23.4615 36.0864 23.4615 35.4528C23.4615 34.7608 24.2172 33.9701 25.3871 33.4388L26.2677 33.0391L25.6436 32.301C24.8924 31.4139 24.5767 30.499 24.8193 29.9129C25.0459 29.367 25.8117 28.9607 26.8699 28.8284L27.6817 28.7261L27.4881 27.9303C27.2542 26.9686 27.3492 26.1589 27.7431 25.7658C28.2072 25.3025 29.2492 25.2557 30.3973 25.6547L31.3085 25.9704L31.3655 25.008C31.4415 23.7174 31.8179 22.8405 32.3959 22.6015C33.028 22.3377 34.1783 22.744 34.7154 23.4207L35.3585 24.229L35.9073 23.3535C36.3859 22.5906 37.3776 21.4615 37.9885 21.4615C38.7763 21.4615 39.7153 22.7009 40.0471 23.3016L40.4877 24.0989L41.171 23.4982C42.075 22.7031 43.0549 22.3487 43.6593 22.6015C44.1781 22.8164 44.5786 23.5281 44.7299 24.5045L44.8555 25.3134L45.6455 25.0964C46.673 24.815 47.5389 24.8961 47.9577 25.3149C48.4064 25.7643 48.4663 26.7304 48.1133 27.836L47.8188 28.7568L48.7849 28.7889C50.0484 28.8321 51.0744 29.2837 51.3353 29.9136C51.5779 30.4997 51.2622 31.4146 50.5117 32.3025L49.8876 33.0398L50.7675 33.4396C51.9367 33.9716 52.6923 34.7615 52.6923 35.4536C52.6923 36.0871 52.05 36.8121 51.0167 37.3448L50.1573 37.7869L50.8179 38.4928Z" fill="white"/>
<path d="M34.6924 39.8204C34.6924 40.1317 34.365 40.3845 33.9616 40.3845H32.5001C32.0967 40.3845 31.7693 40.1317 31.7693 39.8204V34.1793C31.7693 33.868 32.0967 33.6152 32.5001 33.6152H33.9616C34.365 33.6152 34.6924 33.868 34.6924 34.1793V39.8204Z" fill="#F25929"/>
<path d="M40.8572 32.8155C40.5327 32.8155 40.2693 32.5329 40.2693 32.1847V29.6616C40.2693 28.6215 39.4874 27.7775 38.5197 27.7693C38.1905 27.7668 37.9177 28.0468 37.9177 28.4001V31.2751C37.9177 31.8182 37.5937 32.3001 37.1134 32.4723L36.5555 32.6716C36.3156 32.7574 36.1539 32.9984 36.1539 33.2696V39.7539C36.1539 40.1021 36.4173 40.3847 36.7418 40.3847H40.8572C42.8056 40.3847 44.3847 38.6898 44.3847 36.6001V34.077C44.3847 33.38 43.8585 32.8155 43.2089 32.8155H40.8572Z" fill="#F25929"/>

    </g>
  </symbol>

<symbol id="steps-line" viewBox="0 0 1440 338">
    <g>
        <path d="M-11 336C-11 336 113 120 349 120C585 120 560 180 719 169C878 158 941 -1.00001 1121 2.99999C1191.18 4.55958 1250 37.1741 1304 59.0816C1395 96 1618 81 1618 81"/>
    </g>
  </symbol>

  <symbol id="vk" viewBox="0 0 36 36">
    <g>
      <rect width="36" height="36" rx="4" fill="white"/>
<path fill-rule="evenodd" clip-rule="evenodd" d="M18.7947 23.8382C18.7947 23.8382 19.1758 23.7966 19.3711 23.5908C19.5498 23.4022 19.5436 23.0463 19.5436 23.0463C19.5436 23.0463 19.5198 21.3844 20.3059 21.139C21.0807 20.8976 22.0754 22.7461 23.1311 23.4569C23.9286 23.9943 24.5339 23.8767 24.5339 23.8767L27.355 23.8382C27.355 23.8382 28.8301 23.7489 28.1307 22.6102C28.0729 22.517 27.7227 21.7676 26.0338 20.2284C24.2643 18.6172 24.5019 18.8778 26.6319 16.0904C27.9293 14.393 28.4479 13.3568 28.2857 12.9137C28.1318 12.4898 27.1773 12.6024 27.1773 12.6024L24.0019 12.6216C24.0019 12.6216 23.7664 12.5902 23.5918 12.6926C23.4214 12.793 23.3109 13.0272 23.3109 13.0272C23.3109 13.0272 22.8088 14.3403 22.1384 15.4577C20.7243 17.8142 20.1592 17.9389 19.9278 17.7929C19.3897 17.4512 19.524 16.422 19.524 15.6909C19.524 13.4064 19.8772 12.4543 18.837 12.2079C18.492 12.1258 18.2379 12.0721 17.3547 12.0629C16.2215 12.0518 15.2629 12.067 14.7196 12.3276C14.358 12.501 14.0791 12.8883 14.2496 12.9106C14.4593 12.938 14.9344 13.0363 15.1865 13.373C15.5119 13.808 15.5005 14.7834 15.5005 14.7834C15.5005 14.7834 15.6875 17.4725 15.0635 17.8061C14.6359 18.0352 14.0492 17.5678 12.7879 15.4293C12.1423 14.3342 11.6547 13.1235 11.6547 13.1235C11.6547 13.1235 11.5607 12.8974 11.3923 12.7758C11.1888 12.6287 10.9048 12.5831 10.9048 12.5831L7.88743 12.6024C7.88743 12.6024 7.43396 12.6145 7.26765 12.8082C7.11993 12.9796 7.25628 13.3355 7.25628 13.3355C7.25628 13.3355 9.61871 18.7612 12.2941 21.4959C14.7475 24.0024 17.5324 23.8382 17.5324 23.8382H18.7947Z" fill="#2B2F3E"/>
  
    </g>
  </symbol>

  <symbol id="fb" viewBox="0 0 36 36">
    <g>
        <rect width="36" height="36" rx="4" fill="white"/>
<path fill-rule="evenodd" clip-rule="evenodd" d="M19.3021 28.8003V17.999H22.2838L22.6789 14.2768H19.3021L19.3072 12.4138C19.3072 11.443 19.3994 10.9229 20.7938 10.9229H22.6578V7.20026H19.6757C16.0938 7.20026 14.8331 9.00591 14.8331 12.0425V14.2772H12.6003V17.9994H14.8331V28.8003H19.3021Z" fill="#2B2F3E"/>

    </g>
  </symbol>

  <symbol id="instagram" viewBox="0 0 36 36">
    <g>
        <rect width="36" height="36" rx="4" fill="white"/>
        <path fill-rule="evenodd" clip-rule="evenodd" d="M17.9999 7.20026C15.0668 7.20026 14.6987 7.21308 13.5467 7.26551C12.3969 7.31816 11.6121 7.50018 10.9254 7.76726C10.2151 8.04312 9.61251 8.41212 9.01221 9.01265C8.41145 9.61296 8.04245 10.2155 7.76569 10.9256C7.49794 11.6126 7.31569 12.3976 7.26394 13.5469C7.21241 14.6989 7.19891 15.0672 7.19891 18.0004C7.19891 20.9335 7.21196 21.3005 7.26416 22.4525C7.31704 23.6023 7.49907 24.3871 7.76592 25.0738C8.042 25.7841 8.411 26.3867 9.01153 26.987C9.61161 27.5877 10.2142 27.9576 10.9241 28.2335C11.6112 28.5006 12.3962 28.6826 13.5458 28.7352C14.6978 28.7877 15.0657 28.8005 17.9986 28.8005C20.9319 28.8005 21.2989 28.7877 22.4509 28.7352C23.6007 28.6826 24.3864 28.5006 25.0735 28.2335C25.7837 27.9576 26.3853 27.5877 26.9854 26.987C27.5862 26.3867 27.9552 25.7841 28.2319 25.074C28.4974 24.3871 28.6797 23.602 28.7337 22.4527C28.7854 21.3007 28.7989 20.9335 28.7989 18.0004C28.7989 15.0672 28.7854 14.6991 28.7337 13.5471C28.6797 12.3974 28.4974 11.6126 28.2319 10.9258C27.9552 10.2155 27.5862 9.61296 26.9854 9.01265C26.3846 8.41189 25.7839 8.04289 25.0729 7.76726C24.3844 7.50018 23.5991 7.31816 22.4493 7.26551C21.2973 7.21308 20.9306 7.20026 17.9966 7.20026H17.9999ZM17.0323 9.14625C17.3199 9.1458 17.6407 9.14625 18.0012 9.14625C20.8848 9.14625 21.2266 9.1566 22.3653 9.20835C23.4183 9.2565 23.9898 9.43245 24.3705 9.58028C24.8745 9.77603 25.2339 10.01 25.6116 10.388C25.9896 10.766 26.2236 11.126 26.4198 11.63C26.5677 12.0103 26.7439 12.5818 26.7918 13.6348C26.8435 14.7733 26.8548 15.1153 26.8548 17.9976C26.8548 20.8799 26.8435 21.2219 26.7918 22.3604C26.7436 23.4134 26.5677 23.9849 26.4198 24.3652C26.2241 24.8692 25.9896 25.2281 25.6116 25.6058C25.2336 25.9838 24.8748 26.2178 24.3705 26.4136C23.9903 26.5621 23.4183 26.7376 22.3653 26.7858C21.2268 26.8375 20.8848 26.8488 18.0012 26.8488C15.1173 26.8488 14.7755 26.8375 13.637 26.7858C12.584 26.7372 12.0125 26.5612 11.6316 26.4134C11.1276 26.2176 10.7676 25.9836 10.3896 25.6056C10.0116 25.2276 9.77755 24.8685 9.58135 24.3643C9.43352 23.984 9.25735 23.4125 9.20942 22.3595C9.15767 21.221 9.14732 20.879 9.14732 17.9949C9.14732 15.1108 9.15767 14.7706 9.20942 13.6321C9.25757 12.5791 9.43352 12.0076 9.58135 11.6269C9.7771 11.1229 10.0116 10.7629 10.3896 10.3849C10.7676 10.0069 11.1276 9.77288 11.6316 9.57668C12.0123 9.42817 12.584 9.25267 13.637 9.2043C14.6333 9.1593 15.0194 9.1458 17.0323 9.14355V9.14625ZM23.7676 10.9389C23.052 10.9389 22.4715 11.5187 22.4715 12.2345C22.4715 12.95 23.052 13.5305 23.7676 13.5305C24.4831 13.5305 25.0636 12.95 25.0636 12.2345C25.0636 11.519 24.4831 10.9385 23.7676 10.9385V10.9389ZM18.0022 12.4541C14.9393 12.4541 12.4559 14.9374 12.4559 18.0004C12.4559 21.0634 14.9393 23.5456 18.0022 23.5456C21.0652 23.5456 23.5476 21.0634 23.5476 18.0004C23.5476 14.9374 21.065 12.4541 18.002 12.4541H18.0022ZM17.9993 14.3999C19.9874 14.3999 21.5993 16.0116 21.5993 17.9999C21.5993 19.9881 19.9874 21.6 17.9993 21.6C16.011 21.6 14.3993 19.9881 14.3993 17.9999C14.3993 16.0116 16.011 14.3999 17.9993 14.3999Z" fill="#2B2F3E"/>
    </g>
  </symbol>

</svg>